<svg id="Ebene_1" data-name="Ebene 1" xmlns="http://www.w3.org/2000/svg" xmlns:xlink="http://www.w3.org/1999/xlink" viewBox="0 0 170 14.99"><defs><style>.cls-1{fill:none;}.cls-2{clip-path:url(#clip-path);}.cls-3{fill:rgb(188,190,192);}</style><clipPath id="clip-path"><rect class="cls-1" width="170" height="14.99"/></clipPath></defs><g class="cls-2"><path class="cls-3" d="M162.28,11.42V8.89h7.24v-3h-7.24V3.58h7.58V.4H157.73V14.59H170V11.42Zm-22.06,3.17h4.17V6h.06c.2.48.68,1.22,1,1.76l4.88,6.81h4.6V.4h-4.18V9h-.06a16.53,16.53,0,0,0-1-1.8L145.05.4h-4.83Zm-10.48-3c-2.16,0-3.52-1.55-3.52-4.07s1.36-4.08,3.52-4.08S133.26,5,133.26,7.5s-1.36,4.07-3.52,4.07m0,3.42c5,0,8.25-2.9,8.25-7.49S134.78,0,129.74,0s-8.26,2.9-8.26,7.5S124.7,15,129.74,15m-17.63-3.57V8.89h7.23v-3h-7.23V3.58h7.57V.4H107.55V14.59h12.27V11.42ZM93.78,14.59h11.41V11H98.33V.4H93.78Zm-17.88-3c-2.16,0-3.52-1.55-3.52-4.07s1.36-4.08,3.52-4.08S79.42,5,79.42,7.5s-1.36,4.07-3.52,4.07m0,3.42c5,0,8.26-2.9,8.26-7.49S80.94,0,75.9,0s-8.25,2.9-8.25,7.5S70.86,15,75.9,15M65.43.4H60.87V14.59h4.56ZM48,14.59h5.45L59.05.4h-5L51.22,9a9.86,9.86,0,0,0-.42,1.8h-.08A14.91,14.91,0,0,0,50.3,9L47.46.4h-5ZM34,8.86,35,6a12.57,12.57,0,0,0,.8-2.74h0A13.85,13.85,0,0,0,36.68,6l1,2.82Zm5.6,5.73h4.72L38.68.4H33L27.33,14.59H32l1-2.82h5.64Zm-25.57,0H25.49V11H18.63V.4H14.07ZM12.13,3.68V.4H0V14.59H4.56V9.27h7.23V6.08H4.56V3.68Z"/></g></svg>